<svg xmlns="http://www.w3.org/2000/svg" fill="none" viewBox="0 0 122 32"><rect width="120.5" height="31" x="1" y=".5" fill="#F9FAFB" rx="2.5"/><rect width="120.5" height="31" x="1" y=".5" stroke="#E2E8F0" rx="2.5"/><path fill="#B1C1D2" d="M11.833 14.333a1.65 1.65 0 0 1 1.667-1.667 1.65 1.65 0 0 1 1.667 1.667 1.65 1.65 0 0 1-1.667 1.666 1.65 1.65 0 0 1-1.667-1.666Zm3 2.333h-2.666a1.65 1.65 0 0 0-1.667 1.667v.666c0 .2.133.334.333.334h5.334c.2 0 .333-.134.333-.334v-.666a1.65 1.65 0 0 0-1.667-1.667Z"/><rect width="24" height="3" x="20.5" y="14.5" fill="#B1C1D2" rx="1.5"/><g clip-path="url(#a)"><path fill="#B1C1D2" d="M82 12.666a3.333 3.333 0 1 0 0 6.667 3.333 3.333 0 0 0 0-6.667Zm1.496 4.083a.334.334 0 0 1-.296.184.31.31 0 0 1-.15-.037l-1.2-.6a.334.334 0 0 1-.183-.297v-1.8a.334.334 0 0 1 .666 0v1.594l1.017.51a.333.333 0 0 1 .147.446Z"/></g><rect width="24" height="3" x="89" y="14.5" fill="#B1C1D2" rx="1.5"/><defs><clipPath id="a"><path fill="#fff" d="M78 12h8v8h-8z"/></clipPath></defs></svg>