<svg xmlns="http://www.w3.org/2000/svg" fill="none" viewBox="0 0 120 100"><rect width="119" height="99" x=".5" y=".5" fill="#FAFAFA" rx="3.5"/><rect width="119" height="99" x=".5" y=".5" stroke="#71717A" rx="3.5"/><rect width="67" height="47" x="6.5" y="40" fill="#F4F4F5" rx="3.5"/><rect width="67" height="47" x="6.5" y="40" stroke="#71717A" rx="3.5"/><path fill="#D4D4D8" d="M10 45.5a2 2 0 0 1 2-2h28a2 2 0 0 1 2 2v17a2 2 0 0 1-2 2H12a2 2 0 0 1-2-2v-17Z"/><path fill="#E4E4E7" d="M46 45a1.5 1.5 0 0 1 1.5-1.5h21a1.5 1.5 0 0 1 0 3h-21A1.5 1.5 0 0 1 46 45ZM46 51a1.5 1.5 0 0 1 1.5-1.5h21a1.5 1.5 0 0 1 0 3h-21A1.5 1.5 0 0 1 46 51ZM46 57a1.5 1.5 0 0 1 1.5-1.5h21a1.5 1.5 0 0 1 0 3h-21A1.5 1.5 0 0 1 46 57ZM46 63a1.5 1.5 0 0 1 1.5-1.5h21a1.5 1.5 0 0 1 0 3h-21A1.5 1.5 0 0 1 46 63ZM10 70a1.5 1.5 0 0 1 1.5-1.5h57a1.5 1.5 0 0 1 0 3h-57A1.5 1.5 0 0 1 10 70ZM10 76a1.5 1.5 0 0 1 1.5-1.5h57a1.5 1.5 0 0 1 0 3h-57A1.5 1.5 0 0 1 10 76ZM10 82a1.5 1.5 0 0 1 1.5-1.5h27a1.5 1.5 0 0 1 0 3h-27A1.5 1.5 0 0 1 10 82Z"/><rect width="33" height="47" x="80.5" y="40" fill="#F4F4F5" rx="3.5"/><rect width="33" height="47" x="80.5" y="40" stroke="#71717A" rx="3.5"/><path fill="#E4E4E7" d="M84 45a1.5 1.5 0 0 1 1.5-1.5h12a1.5 1.5 0 0 1 0 3h-12A1.5 1.5 0 0 1 84 45ZM84 51a1.5 1.5 0 0 1 1.5-1.5h23a1.5 1.5 0 0 1 0 3h-23A1.5 1.5 0 0 1 84 51ZM84 57a1.5 1.5 0 0 1 1.5-1.5h23a1.5 1.5 0 0 1 0 3h-23A1.5 1.5 0 0 1 84 57ZM84 63a1.5 1.5 0 0 1 1.5-1.5h23a1.5 1.5 0 0 1 0 3h-23A1.5 1.5 0 0 1 84 63ZM84 72a1.5 1.5 0 0 1 1.5-1.5h12a1.5 1.5 0 0 1 0 3h-12A1.5 1.5 0 0 1 84 72ZM84 78a1.5 1.5 0 0 1 1.5-1.5h23a1.5 1.5 0 0 1 0 3h-23A1.5 1.5 0 0 1 84 78Z"/><path fill="#FAFAFA" d="M4 .5h112a3.5 3.5 0 0 1 3.5 3.5v22.5H.5V4A3.5 3.5 0 0 1 4 .5Z"/><path stroke="#71717A" d="M4 .5h112a3.5 3.5 0 0 1 3.5 3.5v22.5H.5V4A3.5 3.5 0 0 1 4 .5Z"/><path fill="#71717A" d="M6 13.5A1.5 1.5 0 0 1 7.5 12h13a1.5 1.5 0 0 1 0 3h-13A1.5 1.5 0 0 1 6 13.5Z"/><path fill="#A1A1AA" d="M68 13.5a1.5 1.5 0 0 1 1.5-1.5h9a1.5 1.5 0 0 1 0 3h-9a1.5 1.5 0 0 1-1.5-1.5ZM82 13.5a1.5 1.5 0 0 1 1.5-1.5h5a1.5 1.5 0 0 1 0 3h-5a1.5 1.5 0 0 1-1.5-1.5ZM92 13.5a1.5 1.5 0 0 1 1.5-1.5h9a1.5 1.5 0 0 1 0 3h-9a1.5 1.5 0 0 1-1.5-1.5ZM106 13.5a1.5 1.5 0 0 1 1.5-1.5h5a1.5 1.5 0 0 1 0 3h-5a1.5 1.5 0 0 1-1.5-1.5Z"/></svg>